<svg width="388" height="129" viewBox="0 0 388 129" fill="none" xmlns="http://www.w3.org/2000/svg">
<path d="M284.589 113.909C282.473 113.909 280.611 112.958 279.472 111.311C277.999 109.181 278.12 105.336 279.138 103.073C280.638 99.7642 285.473 95.6787 291.581 90.5083C293.859 88.5794 296.444 86.3826 299.096 84.0251C308.66 75.5193 316.911 65.9822 320.622 59.124C324.533 51.8907 326.154 40.6792 320.957 31.9457C317.085 25.4625 307.87 17.7203 285.889 17.7203C212.806 17.7203 194.709 26.1858 181.288 35.6293C169.929 43.6126 157.257 60.5438 150.707 69.9203C146.113 76.5106 143.018 77.0464 139.75 77.0464C137.513 77.0464 135.678 76.1355 134.7 74.5415C134.312 73.8986 133.562 71.9563 135.089 67.8307C152.181 21.7253 155.944 16.2602 156.092 16.0593C156.226 15.8048 163.74 0.695312 176.144 0.695312H351.604C367.33 0.695312 380.698 7.5803 385.667 18.2293C395.982 40.3175 351.47 72.626 337.58 82.0025C329.221 87.6551 321.131 92.263 313.991 96.3351C308.647 99.3891 304.025 102.028 300.596 104.372C299.096 105.403 297.676 106.395 296.35 107.319C290.858 111.163 286.893 113.936 284.576 113.936L284.589 113.909Z" fill="black"/>
<path d="M176.149 0V1.33949H351.609C367.081 1.33949 380.208 8.06374 385.07 18.485C389.129 27.1649 384.722 38.6042 371.983 52.4545C360.396 65.0592 345.22 76.0162 337.21 81.4277C328.865 87.067 320.801 91.6615 313.675 95.7201C308.304 98.7742 303.682 101.426 300.226 103.784C298.726 104.815 297.306 105.807 295.98 106.731C290.796 110.361 286.698 113.227 284.581 113.227C282.692 113.227 281.018 112.383 280.013 110.91C278.701 108.995 278.808 105.378 279.746 103.328C281.192 100.154 285.961 96.1086 292.015 90.9917C294.292 89.0629 296.891 86.8661 299.543 84.5086C309.161 75.9626 317.466 66.3451 321.203 59.4333C324.913 52.5751 327.231 41.1626 321.524 31.5852C317.573 24.9413 308.17 17.0383 285.88 17.0383C212.61 17.0383 194.407 25.5709 180.891 35.0679C169.452 43.1183 156.713 60.103 150.15 69.5197C145.381 76.3511 142.381 76.3511 139.742 76.3511C137.746 76.3511 136.112 75.5608 135.268 74.1677C134.92 73.6051 134.277 71.8772 135.71 68.0328C152.641 22.3695 156.486 16.6365 156.619 16.4356L156.7 16.3284L156.753 16.2079C156.82 16.0605 164.161 1.3261 176.136 1.3261V0M176.136 0C163.156 0 155.548 15.6453 155.548 15.6453C155.548 15.6453 151.945 20.4005 134.451 67.5908C133.004 71.4887 133.433 73.7525 134.116 74.891C135.214 76.6859 137.25 77.704 139.728 77.704C143.01 77.704 146.372 77.2619 151.235 70.2966C156.097 63.3312 169.519 44.7123 181.655 36.1797C193.79 27.6471 210.614 18.3912 285.867 18.3912C327.418 18.3912 327.016 45.8508 320.011 58.8037C316.434 65.4074 308.384 74.8642 298.632 83.5173C288.881 92.1839 280.67 98.0642 278.513 102.793C277.375 105.298 277.321 109.396 278.902 111.687C280.161 113.522 282.237 114.58 284.568 114.58C287.702 114.58 293.087 110.294 300.963 104.896C308.839 99.4975 323.172 92.5187 337.947 82.5395C356.981 69.6938 396.161 39.1266 386.262 17.9224C381.212 7.03234 367.59 0 351.609 0H176.149H176.136Z" fill="black"/>
<path d="M36.2641 128.537C20.284 128.537 6.67471 121.505 1.58464 110.615C-8.31421 89.4106 30.8793 58.8434 49.9001 45.9977C64.6747 36.0185 79.0073 29.0397 86.8835 23.6416C94.7597 18.2434 100.144 13.957 103.279 13.957C105.623 13.957 107.686 15.0152 108.945 16.8503C110.512 19.1409 110.472 23.2263 109.333 25.7446C107.177 30.473 98.9657 36.3533 89.2142 45.0199C79.4627 53.6864 71.4124 63.1432 67.8359 69.7335C60.8304 82.6864 60.4285 110.146 101.98 110.146C177.232 110.146 194.056 100.89 206.192 92.3575C218.328 83.825 231.75 65.206 236.612 58.2406C241.474 51.2753 244.836 50.8333 248.118 50.8333C250.596 50.8333 252.646 51.8647 253.731 53.6462C254.427 54.7848 254.842 57.0351 253.396 60.9464C235.902 108.123 232.299 112.892 232.299 112.892C232.299 112.892 224.691 128.537 211.711 128.537H36.2641Z" fill="black"/>
</svg>
